<svg width="21" height="20" viewBox="0 0 21 20" fill="none" xmlns="http://www.w3.org/2000/svg">
<path d="M15.6667 2H19.6667C19.932 2 20.1863 2.10536 20.3739 2.29289C20.5614 2.48043 20.6667 2.73478 20.6667 3V19C20.6667 19.2652 20.5614 19.5196 20.3739 19.7071C20.1863 19.8946 19.932 20 19.6667 20H1.66675C1.40153 20 1.14718 19.8946 0.959641 19.7071C0.772105 19.5196 0.666748 19.2652 0.666748 19V3C0.666748 2.73478 0.772105 2.48043 0.959641 2.29289C1.14718 2.10536 1.40153 2 1.66675 2H5.66675V0H7.66675V2H13.6667V0H15.6667V2ZM2.66675 8V18H18.6667V8H2.66675ZM4.66675 12H9.66675V16H4.66675V12Z" fill="#FFA800"/>
</svg>
